<svg id="canvas" height="auto" xmlns="http://www.w3.org/2000/svg" version="1.1" xmlns:xlink="http://www.w3.org/1999/xlink" viewBox="0 0 900 512" width="auto" style="width: auto; height: auto;"><defs><linearGradient gradientTransform="matrix(6.123233995736766e-17,1,-1,6.123233995736766e-17,0,0)" id="SvgjsLinearGradient1004"><stop stop-color="#426bff" offset="0"/><stop stop-color="hsv(287, 74%, 100%)" offset="1"/></linearGradient><linearGradient gradientTransform="matrix(6.123233995736766e-17,1,-1,6.123233995736766e-17,0,0)"><stop stop-color="#111b40" offset="0"/><stop stop-color="hsv(287, 74%, 25%)" offset="1"/></linearGradient><linearGradient gradientTransform="matrix(6.123233995736766e-17,1,-1,6.123233995736766e-17,0,0)" id="SvgjsLinearGradient1000"><stop stop-color="#19285e" offset="0"/><stop stop-color="hsv(287, 74%, 37%)" offset="1"/></linearGradient><linearGradient gradientTransform="matrix(6.123233995736766e-17,1,-1,6.123233995736766e-17,0,0)"><stop stop-color="#3a5dde" offset="0"/><stop stop-color="hsv(287, 74%, 87%)" offset="1"/></linearGradient><linearGradient gradientTransform="matrix(6.123233995736766e-17,1,-1,6.123233995736766e-17,0,0)" id="SvgjsLinearGradient1001"><stop stop-color="#213680" offset="0"/><stop stop-color="hsv(287, 74%, 50%)" offset="1"/></linearGradient><linearGradient gradientTransform="matrix(6.123233995736766e-17,1,-1,6.123233995736766e-17,0,0)" id="SvgjsLinearGradient1003"><stop stop-color="#29429e" offset="0"/><stop stop-color="hsv(287, 74%, 62%)" offset="1"/></linearGradient><linearGradient gradientTransform="matrix(6.123233995736766e-17,1,-1,6.123233995736766e-17,0,0)" id="SvgjsLinearGradient1002"><stop stop-color="#3250bf" offset="0"/><stop stop-color="hsv(287, 74%, 75%)" offset="1"/></linearGradient></defs><rect width="900" height="512" fill="url(#SvgjsLinearGradient1000)"/><polyline points="0,512 0,86.67391206608544 112.5,23.31546922843459 225,29.345496600813558 337.5,56.72836661621912 450,66.82049873122376 562.5,68.51641443264577 675,11.539061637024762 787.5,100.6998764081029 900,98.94473699526048 902,514" fill="url(#SvgjsLinearGradient1001)" opacity="0.9"/><polyline points="0,512 0,153.05471401542252 112.5,147.91883704447508 225,93.00897246324587 337.5,182.41153970858133 450,147.7494623866516 562.5,178.26752248172716 675,120.11765389838683 787.5,167.15654918811143 900,181.09784897572197 902,514" fill="url(#SvgjsLinearGradient1002)" opacity="0.9"/><polyline points="0,512 0,278.833996640836 112.5,247.35846327203853 225,181.8854849655794 337.5,272.37380692508526 450,285.7529406473001 562.5,320.61692168804973 675,227.98613221691227 787.5,255.83216116216406 900,293.81034453699 902,514" fill="url(#SvgjsLinearGradient1001)" opacity="0.9"/><polyline points="0,512 0,380.47920620850135 112.5,366.29080590753796 225,246.71038864898063 337.5,373.7036561143055 450,349.3077991862984 562.5,460.32144789666006 675,338.3434314322578 787.5,320.9677207368196 900,433.48714127729284 902,514" fill="url(#SvgjsLinearGradient1001)" opacity="0.9"/><polyline points="0,512 0,478.66205558118924 112.5,494.07827958059795 225,362.34441252440666 337.5,453.2764605241339 450,438.57778022300204 562.5,577.1743278171016 675,402.91202611912377 787.5,417.32824401460766 900,521.0659610758556 902,514" fill="url(#SvgjsLinearGradient1003)" opacity="0.9"/><polyline points="0,512 0,613.2404140349618 112.5,612.9777688952928 225,499.97719078405476 337.5,545.5115629856731 450,513.2610319344021 562.5,693.230123621426 675,506.52524425325237 787.5,520.0117472702532 900,635.432156315744 902,514" fill="url(#SvgjsLinearGradient1004)" opacity="0.9"/></svg>