<svg id="canvas" height="auto" xmlns="http://www.w3.org/2000/svg" version="1.1" xmlns:xlink="http://www.w3.org/1999/xlink" viewBox="0 0 900 512" width="auto" style="width: auto; height: auto;"><defs><linearGradient gradientTransform="matrix(6.123233995736766e-17,1,-1,6.123233995736766e-17,0,0)"><stop stop-color="#215780" offset="0"/><stop stop-color="hsv(266, 74%, 50%)" offset="1"/></linearGradient><linearGradient gradientTransform="matrix(6.123233995736766e-17,1,-1,6.123233995736766e-17,0,0)" id="SvgjsLinearGradient1015"><stop stop-color="#2a6da1" offset="0"/><stop stop-color="hsv(266, 74%, 63%)" offset="1"/></linearGradient><linearGradient gradientTransform="matrix(6.123233995736766e-17,1,-1,6.123233995736766e-17,0,0)" id="SvgjsLinearGradient1012"><stop stop-color="#3282bf" offset="0"/><stop stop-color="hsv(266, 74%, 75%)" offset="1"/></linearGradient><linearGradient gradientTransform="matrix(6.123233995736766e-17,1,-1,6.123233995736766e-17,0,0)" id="SvgjsLinearGradient1014"><stop stop-color="#112b40" offset="0"/><stop stop-color="hsv(266, 74%, 25%)" offset="1"/></linearGradient><linearGradient gradientTransform="matrix(6.123233995736766e-17,1,-1,6.123233995736766e-17,0,0)" id="SvgjsLinearGradient1011"><stop stop-color="#3a98e0" offset="0"/><stop stop-color="hsv(266, 74%, 88%)" offset="1"/></linearGradient><linearGradient gradientTransform="matrix(6.123233995736766e-17,1,-1,6.123233995736766e-17,0,0)" id="SvgjsLinearGradient1013"><stop stop-color="#194261" offset="0"/><stop stop-color="hsv(266, 74%, 38%)" offset="1"/></linearGradient><linearGradient gradientTransform="matrix(6.123233995736766e-17,1,-1,6.123233995736766e-17,0,0)" id="SvgjsLinearGradient1010"><stop stop-color="#42adff" offset="0"/><stop stop-color="hsv(266, 74%, 100%)" offset="1"/></linearGradient></defs><rect width="900" height="512" fill="url(#SvgjsLinearGradient1010)"/><polyline points="0,512 0,8.954051667572672 112.5,9.44927949634635 225,19.213000772214425 337.5,24.482744024638293 450,40.60976786334668 562.5,13.520167954917955 675,67.03328492963412 787.5,57.23465643108515 900,28.694636756712725 902,514" fill="url(#SvgjsLinearGradient1011)" opacity="0.9"/><polyline points="0,512 0,90.71628489440143 112.5,105.9306920126167 225,153.4826051692806 337.5,125.08094362181852 450,120.07302281879885 562.5,149.73408914690705 675,203.7257480491995 787.5,187.83224346340384 900,133.87458587962772 902,514" fill="url(#SvgjsLinearGradient1010)" opacity="0.9"/><polyline points="0,512 0,178.03545675972205 112.5,209.65088770653333 225,227.89082671177263 337.5,211.24402461193796 450,238.65716147609294 562.5,258.62724508525554 675,342.44557114758226 787.5,252.7622656438915 900,232.21248190091316 902,514" fill="url(#SvgjsLinearGradient1012)" opacity="0.9"/><polyline points="0,512 0,292.9178422528858 112.5,290.06489382861537 225,354.0575179895832 337.5,321.86877950882433 450,329.0474188963396 562.5,331.84325707397545 675,444.3210247962094 787.5,391.7063333011821 900,371.7065131746768 902,514" fill="url(#SvgjsLinearGradient1013)" opacity="0.9"/><polyline points="0,512 0,401.03332229568593 112.5,371.2100414175772 225,491.7165658029344 337.5,434.6606693701292 450,416.4841384718129 562.5,434.7082497511643 675,525.1986351756127 787.5,489.1980800881313 900,448.9181872454866 902,514" fill="url(#SvgjsLinearGradient1014)" opacity="0.9"/><polyline points="0,512 0,528.7984397933412 112.5,480.35323327233397 225,565.0876390411676 337.5,552.0443211711839 450,486.8793153715385 562.5,531.2713574021035 675,665.0161110656471 787.5,621.3592080061787 900,558.6524321411698 902,514" fill="url(#SvgjsLinearGradient1015)" opacity="0.9"/></svg>